<svg 
 xmlns="http://www.w3.org/2000/svg"
 xmlns:xlink="http://www.w3.org/1999/xlink"
 width="35px" height="46px">
<path fill-rule="evenodd"  stroke="rgb(59, 59, 59)" stroke-width="2px" stroke-linecap="butt" stroke-linejoin="miter" fill="none"
 d="M28.000,43.999 L12.000,43.999 L12.000,38.999 L7.000,30.999 L1.000,19.999 L3.000,17.999 L6.000,17.999 L10.000,22.999 L10.000,2.999 L12.000,0.999 L15.000,0.999 L17.000,2.999 L17.000,20.999 "/>
<path fill-rule="evenodd"  stroke="rgb(59, 59, 59)" stroke-width="2px" stroke-linecap="butt" stroke-linejoin="miter" fill="none"
 d="M17.000,12.999 L18.000,11.999 L20.000,11.999 L22.000,13.999 L22.000,20.999 "/>
<path fill-rule="evenodd"  stroke="rgb(59, 59, 59)" stroke-width="2px" stroke-linecap="butt" stroke-linejoin="miter" fill="none"
 d="M22.000,14.999 L23.000,13.999 L26.000,13.999 L27.000,15.999 L27.000,22.999 "/>
<path fill-rule="evenodd"  stroke="rgb(59, 59, 59)" stroke-width="2px" stroke-linecap="butt" stroke-linejoin="miter" fill="none"
 d="M27.000,16.999 L29.000,15.999 L31.000,15.999 L33.000,17.999 L33.000,33.000 L28.000,42.999 "/>
</svg>