<svg 
 xmlns="http://www.w3.org/2000/svg"
 xmlns:xlink="http://www.w3.org/1999/xlink"
 width="46px" height="47px">
<path fill-rule="evenodd"  stroke="rgb(59, 59, 59)" stroke-width="2px" stroke-linecap="butt" stroke-linejoin="miter" fill="none"
 d="M23.000,13.000 C28.523,13.000 33.000,17.477 33.000,23.000 C33.000,28.523 28.523,33.000 23.000,33.000 C17.477,33.000 13.000,28.523 13.000,23.000 C13.000,17.477 17.477,13.000 23.000,13.000 Z"/>
<path fill-rule="evenodd"  stroke="rgb(59, 59, 59)" stroke-width="2px" stroke-linecap="butt" stroke-linejoin="miter" fill="none"
 d="M23.000,17.000 C26.314,17.000 29.000,19.686 29.000,23.000 C29.000,26.314 26.314,29.000 23.000,29.000 C19.686,29.000 17.000,26.314 17.000,23.000 C17.000,19.686 19.686,17.000 23.000,17.000 Z"/>
<path fill-rule="evenodd"  stroke="rgb(59, 59, 59)" stroke-width="2px" stroke-linecap="butt" stroke-linejoin="miter" fill="none"
 d="M19.000,0.999 L26.000,0.999 L28.000,6.999 L30.000,7.999 L36.000,5.000 L40.000,9.999 L37.000,15.999 L39.000,18.999 L44.000,19.999 L44.000,26.999 L38.000,27.999 L37.000,30.999 L40.000,35.999 L36.000,40.999 L30.000,37.999 L27.000,38.999 L26.000,44.999 L19.000,44.999 L18.000,40.000 L15.000,37.999 L10.000,40.999 L5.000,35.999 L8.000,30.999 L7.000,27.999 L1.000,25.999 L1.000,18.999 L7.000,17.999 L8.000,14.999 L5.000,9.999 L9.000,5.000 L15.000,8.999 L18.000,7.999 L19.000,0.999 "/>
</svg>