<svg xmlns="http://www.w3.org/2000/svg" viewBox="0 0 65.419 17.866" enable-background="new 0 0 65.419 17.866"><g fill="#674a98"><path d="m8.256 7.765l-.024-.013.025 4.066h.753v1.15.104c0 0-.009 0-.025.001-.108.005-.544.023-.828.023-1.519 0-2.06-.776-2.223-2.387-.041-.426-.061-.96-.061-1.504 0-2.936.05-3.789 2.535-3.789 1.98 0 4.96.245 5.717.311.116.01.181.016.181.016v-4.391c0 0-.006-.001-.016-.004-.252-.06-3.608-.85-6.384-.85-2.023 0-3.611.278-4.816.936-.008.004-.016.007-.023.011-2.143 1.18-3.067 3.574-3.067 7.762 0 .172.001.34.004.504.099 5.551 1.702 8.139 7.842 8.155.016 0 .044 0 .06 0 1.982 0 6.525-.728 6.525-.728v-4.291-1.701-3.394h-6.191l.016.013"/><path d="m26.15.611v11.02c0 .261-.031.477-.098.655-.003.009-.006.019-.01.027-.185.456-.625.647-1.448.647-.9 0-1.356-.23-1.515-.783-.045-.156-.067-.337-.067-.547v-4.592-.072-6.354h-5.728-.094v10.793c0 .23.006.454.017.671.201 3.871 2.196 5.346 5.909 5.627.023.001.046.003.069.004.446.032.915.048 1.41.048 4.43 0 6.886-1.275 7.312-5.148.044-.405.067-.839.067-1.302v-6.092-4.601h-5.684-.14"/><path d="m59.734.611h-.139v11.02c0 .261-.03.477-.097.655-.004.009-.007.019-.011.027-.185.456-.624.647-1.447.647-.9 0-1.356-.23-1.515-.783-.045-.156-.067-.337-.067-.547v-4.592-.072-6.354h-5.728-.094v10.793c0 .23.005.454.017.671.2 3.871 2.195 5.346 5.908 5.627.023.001.046.003.069.004.445.032.915.048 1.41.048 4.43 0 6.886-1.275 7.312-5.148.044-.405.066-.839.066-1.302v-6.092-4.601h-5.684"/><path d="m47.07 1.962c-1.201-.903-3.01-1.188-5.435-1.188h-1.241-.006-.097-5.733v.046 8.498.043.062 8.167h.018 5.858.005l-.013-4.343h1.36.024l.008.034.946 4.309h5.923l-.016-.056-.022-.078-1.618-5.589c.937-.761 1.539-1.871 1.761-3.437 0-.002.001-.004.001-.006.063-.445.096-.93.096-1.451.001-2.541-.599-4.094-1.819-5.01m-4.908 6.64c-.101.029-.211.048-.331.051-.004 0-.008.001-.012.001-.012 0-.021.002-.032.002h-1.375v-.125-.023l-.01-3.141h1.233c.725 0 1.144.319 1.305.934.051.195.076.42.076.674.001.879-.281 1.457-.854 1.627"/></g><path fill="#2b78bd" d="m8.24 7.752l6.192 5.096v-5.096z"/><path fill="#010202" d="m3.067 1.445l.03.011-.007-.023c-.008.004-.016.008-.023.012"/><path fill="#39b0e1" d="m8.919 3.712l5.206 2.02c.116.01.181.016.181.016v-4.392c0 0-.006-.001-.016-.004l-5.371 2.364"/><path fill="#23a1d7" d="m7.906.499c-2.023 0-3.611.278-4.816.935l.007.023 5.823 2.256 5.371-2.364c-.252-.061-3.608-.85-6.385-.85"/><path fill="#2b78bd" d="m5.873 9.208c0-2.937.05-3.79 2.535-3.79 1.98 0 4.96.246 5.717.311l-11.03-4.273 2.837 9.255c-.04-.426-.061-.96-.061-1.503"/><path fill="#534294" d="m5.934 10.711c-.001-.016-2.837-9.255-2.837-9.255l-.03-.011c-2.143 1.18-3.067 3.574-3.067 7.763 0 .171.001.339.004.504l5.93.999"/><path fill="#bb3984" d="m.004 9.711c.099 5.55 1.702 8.138 7.842 8.155l-7.842-8.155"/><path fill="#674a98" d="m14.432 17.14v-4.292l-6.164-5.073z"/><path fill="#bb3984" d="m9.06 12.766l-.049.203v.104c0 0-.009 0-.025.001l-.005.02 5.451 4.045-6.163-9.364-.028-.023h-.008l.025 4.066h.753v1.15l.049-.202"/><path fill="#e32641" d="m8.98 13.09l-1.134 4.772c.016 0 .044 0 .06 0 1.982 0 6.525-.728 6.525-.728l-5.451-4.04"/><path fill="#de3874" d="m8.157 13.1c-1.519 0-2.06-.776-2.223-2.387l-5.93-1 7.842 8.155 1.139-4.792c-.108.005-.544.024-.828.024"/><g fill="#39b0e1"><path d="m31.901 12.605c.044-.405.067-.839.067-1.302v-6.091l-1.615-1.307 1.484 8.698.064.002"/><path d="m23.01.611h-5.73l5.691 6.386.039-.033z"/></g><path fill="#010202" d="m23.01 6.964l-.039.033.039.043z"/><path fill="#23a1d7" d="m17.28.611h-.094v10.793c0 .23.006.454.017.671l5.769-5.079-5.692-6.385"/><path fill="#674a98" d="m23.01 11.63v-4.592l-.037-.041-5.712 5.03 5.816.152c-.045-.156-.067-.337-.067-.547"/><path fill="#bb3984" d="m17.259 12.02l-.057.051c.201 3.871 2.196 5.346 5.909 5.627l-1.626-5.566-4.226-.112"/><path fill="#23a1d7" d="m31.968.611h-5.688l5.688 4.601z"/><path fill="#534294" d="m30.354 3.905l-.03-.024-4.275 8.405c-.003.009-.006.019-.01.027l5.799.29-1.484-8.698"/><path fill="#2b78bd" d="m26.28.611h-.139v11.02c0 .261-.031.477-.098.655l4.275-8.405-4.04-3.269"/><path fill="#de3874" d="m26.04 12.312c-.185.456-.625.647-1.448.647-.9 0-1.356-.23-1.515-.783l-1.591-.041 1.626 5.566c.023.001.046.003.069.004l8.588-5.107-5.729-.286"/><path fill="#e32641" d="m23.18 17.706c.446.032.915.048 1.41.048 4.43 0 6.886-1.275 7.312-5.148l-.134-.007-8.588 5.107"/><path fill="#4096d2" d="m65.35 12.605c.044-.405.066-.839.066-1.302v-6.091l-1.615-1.307 1.484 8.698.065.002"/><path fill="#39b0e1" d="m56.46.611h-5.73l5.69 6.386.04-.033z"/><path fill="#010202" d="m56.46 6.964l-.04.033.04.043z"/><path fill="#2b78bd" d="m50.73.611h-.094v10.793c0 .23.005.454.017.671l5.769-5.079-5.692-6.385"/><path fill="#674a98" d="m56.46 11.63v-4.592l-.037-.041-5.712 5.03 5.816.152c-.045-.156-.067-.337-.067-.547"/><path fill="#e32641" d="m50.71 12.02l-.057.051c.2 3.871 2.195 5.346 5.908 5.627l-1.721-7.558-4.13 1.88"/><path fill="#39b0e1" d="m65.42.611h-5.686l5.686 4.601z"/><path fill="#674a98" d="m63.804 3.905l-.03-.024-4.274 8.405c-.004.009-.007.019-.011.027l4.502-1.089-.187-7.319"/><path fill="#2b78bd" d="m59.734.611h-.139v11.02c0 .261-.03.477-.097.655l4.274-8.405-4.04-3.269"/><path fill="#de3874" d="m59.49 12.312c-.185.456-.624.647-1.447.647-.9 0-1.356-.23-1.515-.783l-1.686-2.033 1.721 7.558c.023.001.046.003.069.004l7.359-6.482-4.501 1.089"/><path fill="#674a98" d="m56.631 17.706c.445.032.915.048 1.41.048 4.43 0 6.886-1.275 7.312-5.148l-1.362-1.382-7.36 6.482"/><path fill="#39b0e1" d="m41.635.774h-1.241l3.77 3.434 2.906-2.247c-1.202-.902-3.01-1.187-5.435-1.187"/><path fill="#2b78bd" d="m47.07 1.962l-2.906 2.247 4.63 4.218c.063-.446.096-.93.096-1.452 0-2.543-.6-4.096-1.82-5.01"/><path fill="#bb3984" d="m41.818 8.654c-.012 0-.021.002-.032.002h-1.398v.095l1.431 4.502v-4.599"/><path fill="#cc4c96" d="m40.39 8.751v4.497h1.396.025l.007.034v-.029z"/><path fill="#4096d2" d="m40.39.774h-.006v4.593h1.247c.725 0 1.144.319 1.305.934l5.792 2.068-8.338-7.595"/><path fill="#2b78bd" d="m48.793 8.426l-.062-.057-5.792-2.068c.051.195.076.419.076.673 0 .879-.281 1.458-.854 1.627l6.631-.169c0-.002.001-.004.001-.006"/><path fill="#674a98" d="m48.792 8.432l-6.631.169c-.101.03-.211.049-.331.052l6.819 8.804-1.618-5.589c.937-.761 1.539-1.871 1.761-3.436"/><path fill="#de3874" d="m41.83 8.653h-.012v4.566l6.854 4.315-.023-.078z"/><path fill="#e32641" d="m41.818 13.22v.062l.947 4.309h5.923l-.016-.056z"/><path fill="#bb3984" d="m37.11 12.976l3.32 4.615h.01l-.03-9.06z"/><path fill="#39b0e1" d="m34.558.774v.046l3.049 3.954 2.683-4z"/><path fill="#23a1d7" d="M34.558 9.319 37.607 4.774 34.558.82z"/><path fill="#2b78bd" d="m40.29.774l-5.732 8.545v.043l5.852-.854-.02-7.734z"/><path fill="#674a98" d="m34.558 9.362v.062l2.552 3.552 3.3-4.445v-.023z"/><path fill="#de3874" d="m34.558 9.424v8.167h.017l3.805-2.855z"/><path fill="#e32641" d="m38.38 14.736l-3.805 2.855h5.855z"/><path fill="#2b78bd" d="m63.99 11.224l-.186-7.319 1.486 8.698z"/><path fill="#bb3984" d="m56.42 6.997l-1.579 3.147 1.579 1.926z"/></svg>