<?xml version="1.0" encoding="utf-8"?><svg xmlns="http://www.w3.org/2000/svg" xmlns:xlink="http://www.w3.org/1999/xlink"><symbol viewBox="0 0 49 48" id="b1-icon1" xmlns="http://www.w3.org/2000/svg"><path d="M36 2.999H6l-3 3v36l2 2h37l3-1v-32l-9-8z"/><path d="M11 2.999v12h21v-12m-4 3v6m-20 32v-22h32v22m-25-14h18m-18 7h18"/></symbol><symbol viewBox="0 0 35 46" id="b1-icon3" xmlns="http://www.w3.org/2000/svg"><path d="M28 43.999H12v-5l-5-8-6-11 2-2h3l4 5v-20l2-2h3l2 2v18"/><path d="M17 12.999l1-1h2l2 2v7m0-6l1-1h3l1 2v7m0-6l2-1h2l2 2V33l-5 9.999"/></symbol><symbol viewBox="0 0 54 52" id="b1-icon4" xmlns="http://www.w3.org/2000/svg"><path d="M6 50V8l-2 2.999"/><path d="M2.006 41.437l6.072-2.934 7.545 2.524 2.082-.763 4.597-5.047c4.782-3.236 10.532 2.288 15.265 2.288 2.544-2.171 4.089-4.343 6.632-6.514M1.856 38.753l9.327-11.745.346.172 2.245 4.664 7.514-12.523c2.849 2.045 5.7 4.088 8.55 6.132l10.363-12.004h5.441M2 45.999h43l-3 2"/></symbol><symbol viewBox="0 0 46 47" id="b1-icon5" xmlns="http://www.w3.org/2000/svg"><path d="M23 13c5.523 0 10 4.477 10 10s-4.477 10-10 10-10-4.477-10-10 4.477-10 10-10z"/><path d="M23 17a6 6 0 1 1 0 12 6 6 0 0 1 0-12z"/><path d="M19 .999h7l2 6 2 1L36 5l4 4.999-3 6 2 3 5 1v7l-6 1-1 3 3 5-4 5-6-3-3 1-1 6h-7L18 40l-3-2.001-5 3-5-5 3-5-1-3-6-2v-7l6-1 1-3-3-5L9 5l6 3.999 3-1 1-7"/></symbol><symbol viewBox="0 0 19 19" id="phone" xmlns="http://www.w3.org/2000/svg"><path d="M10.083 16.78C5.533 13.716-.095 6.21.28 3.709 1.106-1.798 7.6.132 6.874 5.668c-.394 3.005 3.672 7.154 6.494 6.628 3.334-.622 6.506 2.106 5.11 4.395-1.621 2.661-4.533 2.692-8.395.09zm6.94-.21c1.435-1.73-1.807-3.943-4.348-2.968-2.044.784-7.797-4.911-7.016-6.946C6.705 3.93 4.155.496 2.393 2.26.347 4.305 2.398 8.194 8.48 13.802c4.855 4.474 6.644 5.054 8.542 2.768z"/></symbol><symbol viewBox="0 0 33 42" id="rouble" xmlns="http://www.w3.org/2000/svg"><path d="M9 39.999v-39h11s9.51.506 10 8c.058 1.905 0 5.442 0 7-1.748 8.521-12 8-12 8H1m0 5h19"/></symbol></svg>