<?xml version="1.0" encoding="utf-8"?><svg xmlns="http://www.w3.org/2000/svg" xmlns:xlink="http://www.w3.org/1999/xlink"><symbol viewBox="0 0 49 48" id="b1-icon1" xmlns="http://www.w3.org/2000/svg"><path d="M36 2.999H6l-3 3v36l2 2h37l3-1v-32l-9-8z"/><path d="M11 2.999v12h21v-12m-4 3v6m-20 32v-22h32v22m-25-14h18m-18 7h18"/></symbol><symbol viewBox="0 0 35 46" id="b1-icon3" xmlns="http://www.w3.org/2000/svg"><path d="M28 43.999H12v-5l-5-8-6-11 2-2h3l4 5v-20l2-2h3l2 2v18"/><path d="M17 12.999l1-1h2l2 2v7m0-6l1-1h3l1 2v7m0-6l2-1h2l2 2V33l-5 9.999"/></symbol><symbol viewBox="0 0 54 52" id="b1-icon4" xmlns="http://www.w3.org/2000/svg"><path d="M6 50V8l-2 2.999"/><path d="M2.006 41.437l6.072-2.934 7.545 2.524 2.082-.763 4.597-5.047c4.782-3.236 10.532 2.288 15.265 2.288 2.544-2.171 4.089-4.343 6.632-6.514M1.856 38.753l9.327-11.745.346.172 2.245 4.664 7.514-12.523c2.849 2.045 5.7 4.088 8.55 6.132l10.363-12.004h5.441M2 45.999h43l-3 2"/></symbol><symbol viewBox="0 0 46 47" id="b1-icon5" xmlns="http://www.w3.org/2000/svg"><path d="M23 13c5.523 0 10 4.477 10 10s-4.477 10-10 10-10-4.477-10-10 4.477-10 10-10z"/><path d="M23 17a6 6 0 1 1 0 12 6 6 0 0 1 0-12z"/><path d="M19 .999h7l2 6 2 1L36 5l4 4.999-3 6 2 3 5 1v7l-6 1-1 3 3 5-4 5-6-3-3 1-1 6h-7L18 40l-3-2.001-5 3-5-5 3-5-1-3-6-2v-7l6-1 1-3-3-5L9 5l6 3.999 3-1 1-7"/></symbol><symbol viewBox="0 0 65.419 17.866" id="guru_logo" xmlns="http://www.w3.org/2000/svg"><path d="M8.256 7.765l-.024-.013.025 4.066h.753v1.254l-.025.001c-.108.005-.544.023-.828.023-1.519 0-2.06-.776-2.223-2.387-.041-.426-.061-.96-.061-1.504 0-2.936.05-3.789 2.535-3.789 1.98 0 4.96.245 5.717.311l.181.016V1.352l-.016-.004c-.252-.06-3.608-.85-6.384-.85-2.023 0-3.611.278-4.816.936l-.023.011C.924 2.625 0 5.019 0 9.207c0 .172.001.34.004.504.099 5.551 1.702 8.139 7.842 8.155h.06c1.982 0 6.525-.728 6.525-.728V7.752H8.24l.016.013M26.15.611v11.02c0 .261-.031.477-.098.655l-.01.027c-.185.456-.625.647-1.448.647-.9 0-1.356-.23-1.515-.783a1.977 1.977 0 0 1-.067-.547V.612H17.19v10.793c0 .23.006.454.017.671.201 3.871 2.196 5.346 5.909 5.627l.069.004c.446.032.915.048 1.41.048 4.43 0 6.886-1.275 7.312-5.148.044-.405.067-.839.067-1.302V.612H26.15M59.734.611h-.139v11.02c0 .261-.03.477-.097.655l-.011.027c-.185.456-.624.647-1.447.647-.9 0-1.356-.23-1.515-.783a1.977 1.977 0 0 1-.067-.547V.612h-5.822v10.793c0 .23.005.454.017.671.2 3.871 2.195 5.346 5.908 5.627l.069.004c.445.032.915.048 1.41.048 4.43 0 6.886-1.275 7.312-5.148.044-.405.066-.839.066-1.302V.612h-5.684M47.07 1.962C45.869 1.059 44.06.774 41.635.774h-7.077V17.59h5.881l-.013-4.343h1.384l.008.034.946 4.309h5.923l-.016-.056-.022-.078-1.618-5.589c.937-.761 1.539-1.871 1.761-3.437l.001-.006c.063-.445.096-.93.096-1.451.001-2.541-.599-4.094-1.819-5.01m-4.908 6.64a1.312 1.312 0 0 1-.331.051l-.012.001-.032.002h-1.375v-.148l-.01-3.141h1.233c.725 0 1.144.319 1.305.934.051.195.076.42.076.674.001.879-.281 1.457-.854 1.627"/><path d="M8.24 7.752l6.192 5.096V7.752zM3.067 1.445l.03.011-.007-.023a.485.485 0 0 0-.023.012M8.919 3.712l5.206 2.02.181.016V1.356l-.016-.004-5.371 2.364"/><path d="M7.906.499c-2.023 0-3.611.278-4.816.935l.007.023L8.92 3.713l5.371-2.364c-.252-.061-3.608-.85-6.385-.85"/><path d="M5.873 9.208c0-2.937.05-3.79 2.535-3.79 1.98 0 4.96.246 5.717.311L3.095 1.456l2.837 9.255c-.04-.426-.061-.96-.061-1.503"/><path d="M5.934 10.711a8366.82 8366.82 0 0 0-2.837-9.255l-.03-.011C.924 2.625 0 5.019 0 9.208c0 .171.001.339.004.504l5.93.999"/><path d="M.004 9.711c.099 5.55 1.702 8.138 7.842 8.155L.004 9.711M14.432 17.14v-4.292L8.268 7.775z"/><path d="M9.06 12.766l-.049.203v.104l-.025.001-.005.02 5.451 4.045-6.163-9.364-.028-.023h-.008l.025 4.066h.753v1.15l.049-.202"/><path d="M8.98 13.09l-1.134 4.772h.06c1.982 0 6.525-.728 6.525-.728l-5.451-4.04"/><path d="M8.157 13.1c-1.519 0-2.06-.776-2.223-2.387l-5.93-1 7.842 8.155 1.139-4.792a22.08 22.08 0 0 1-.828.024M31.901 12.605c.044-.405.067-.839.067-1.302V5.212l-1.615-1.307 1.484 8.698.064.002M23.01.611h-5.73l5.691 6.386.039-.033zM23.01 6.964l-.039.033.039.043z"/><path d="M17.28.611h-.094v10.793c0 .23.006.454.017.671l5.769-5.079L17.28.611M23.01 11.63V7.038l-.037-.041-5.712 5.03 5.816.152a1.977 1.977 0 0 1-.067-.547"/><path d="M17.259 12.02l-.057.051c.201 3.871 2.196 5.346 5.909 5.627l-1.626-5.566-4.226-.112M31.968.611H26.28l5.688 4.601z"/><path d="M30.354 3.905l-.03-.024-4.275 8.405-.01.027 5.799.29-1.484-8.698M26.28.611h-.139v11.02c0 .261-.031.477-.098.655l4.275-8.405-4.04-3.269"/><path d="M26.04 12.312c-.185.456-.625.647-1.448.647-.9 0-1.356-.23-1.515-.783l-1.591-.041 1.626 5.566.069.004 8.588-5.107-5.729-.286M23.18 17.706c.446.032.915.048 1.41.048 4.43 0 6.886-1.275 7.312-5.148l-.134-.007-8.588 5.107M65.35 12.605c.044-.405.066-.839.066-1.302V5.212l-1.615-1.307 1.484 8.698.065.002M56.46.611h-5.73l5.69 6.386.04-.033zM56.46 6.964l-.04.033.04.043z"/><path d="M50.73.611h-.094v10.793c0 .23.005.454.017.671l5.769-5.079L50.73.611M56.46 11.63V7.038l-.037-.041-5.712 5.03 5.816.152a1.977 1.977 0 0 1-.067-.547"/><path d="M50.71 12.02l-.057.051c.2 3.871 2.195 5.346 5.908 5.627L54.84 10.14l-4.13 1.88M65.42.611h-5.686l5.686 4.601zM63.804 3.905l-.03-.024-4.274 8.405-.011.027 4.502-1.089-.187-7.319M59.734.611h-.139v11.02c0 .261-.03.477-.097.655l4.274-8.405-4.04-3.269"/><path d="M59.49 12.312c-.185.456-.624.647-1.447.647-.9 0-1.356-.23-1.515-.783l-1.686-2.033 1.721 7.558.069.004 7.359-6.482-4.501 1.089M56.631 17.706c.445.032.915.048 1.41.048 4.43 0 6.886-1.275 7.312-5.148l-1.362-1.382-7.36 6.482M41.635.774h-1.241l3.77 3.434 2.906-2.247C45.868 1.059 44.06.774 41.635.774M47.07 1.962l-2.906 2.247 4.63 4.218c.063-.446.096-.93.096-1.452 0-2.543-.6-4.096-1.82-5.01M41.818 8.654l-.032.002h-1.398v.095l1.431 4.502V8.654"/><path d="M40.39 8.751v4.497h1.421l.007.034v-.029zM40.39.774h-.006v4.593h1.247c.725 0 1.144.319 1.305.934l5.792 2.068L40.39.774"/><path d="M48.793 8.426l-.062-.057-5.792-2.068c.051.195.076.419.076.673 0 .879-.281 1.458-.854 1.627l6.631-.169.001-.006"/><path d="M48.792 8.432l-6.631.169c-.101.03-.211.049-.331.052l6.819 8.804-1.618-5.589c.937-.761 1.539-1.871 1.761-3.436"/><path d="M41.83 8.653h-.012v4.566l6.854 4.315-.023-.078zM41.818 13.22v.062l.947 4.309h5.923l-.016-.056zM37.11 12.976l3.32 4.615h.01l-.03-9.06zM34.558.774V.82l3.049 3.954 2.683-4zM34.558 9.319l3.049-4.545L34.558.82z"/><path d="M40.29.774l-5.732 8.545v.043l5.852-.854-.02-7.734zM34.558 9.362v.062l2.552 3.552 3.3-4.445v-.023z"/><path d="M34.558 9.424v8.167h.017l3.805-2.855z"/><path d="M38.38 14.736l-3.805 2.855h5.855zM63.99 11.224l-.186-7.319 1.486 8.698zM56.42 6.997l-1.579 3.147 1.579 1.926z"/></symbol><symbol viewBox="0 0 19 19" id="phone" xmlns="http://www.w3.org/2000/svg"><path d="M10.083 16.78C5.533 13.716-.095 6.21.28 3.709 1.106-1.798 7.6.132 6.874 5.668c-.394 3.005 3.672 7.154 6.494 6.628 3.334-.622 6.506 2.106 5.11 4.395-1.621 2.661-4.533 2.692-8.395.09zm6.94-.21c1.435-1.73-1.807-3.943-4.348-2.968-2.044.784-7.797-4.911-7.016-6.946C6.705 3.93 4.155.496 2.393 2.26.347 4.305 2.398 8.194 8.48 13.802c4.855 4.474 6.644 5.054 8.542 2.768z"/></symbol><symbol viewBox="0 0 33 42" id="rouble" xmlns="http://www.w3.org/2000/svg"><path d="M9 39.999v-39h11s9.51.506 10 8c.058 1.905 0 5.442 0 7-1.748 8.521-12 8-12 8H1m0 5h19"/></symbol></svg>