<svg xmlns="http://www.w3.org/2000/svg" width="26" height="26" viewBox="0 0 26 26"><path d="M14 17l-1-1-1 1v2.99c0 .567-.45 1.01-1.003 1.01H6.003A.993.993 0 0 1 5 20.003v-6.878L8.556 7H12v4h2V7h3.444L21 13.125v6.878c0 .55-.45.997-1.003.997h-4.994A1 1 0 0 1 14 19.99V17zm2 2h3s.035-5.44 0-5.5c-1.094-1.884-3-5-3-5V13h-6V8.5s-3 5.008-3 5V19h3v-2.828l3-3 3 3V19zm-.99-15h1.98a1 1 0 1 1 0 2h-1.98A.999.999 0 0 1 14 5c0-.556.452-1 1.01-1zm-6 0h1.98a1 1 0 1 1 0 2H9.01A.999.999 0 0 1 8 5c0-.556.452-1 1.01-1z"/></svg>